# xmcd
#
# Track frame offsets: 
#        150
#        20708
#        32159
#        57939
#        78224
#        101875
#        123406
#        142905
#        157803
#        195962
#        215386
#        234030
#        261540
#        278337
#        297553
#        312538
#        333950
#
# Disc length: 4656 seconds
#
# Revision: 0
# Processed by: cddbd v1.5.2PL0 Copyright (c) Steve Scherf et al.
# Submitted via: ExactAudioCopy v0.99pb5
#
DISCID=ec122e11
DTITLE=Eric Anderson - So Much On My Mind - The Eric Anderson Antholog
DTITLE=y 1969-1980
DYEAR=2007
DGENRE=Country
TTITLE0=Secrets
TTITLE1=Sign Of A Desperate Man
TTITLE2=(We Were) Foolish Like The Flowers
TTITLE3=Wind And Sand
TTITLE4=Is It Really Love At All
TTITLE5=Blue River
TTITLE6=Moonchild River Song
TTITLE7=Baby, I'm Lonesome
TTITLE8=Time Run Like A Freight Train
TTITLE9=Woman, She Was Gentle
TTITLE10=Be True To You
TTITLE11=Sweet Surprise
TTITLE12=Love Is Just A Game
TTITLE13=Violets Of Dawn (live)
TTITLE14=Close The Door Ligthly (When You Go)
TTITLE15=Thirsty Boots (live)
TTITLE16=Messiah
EXTD=
EXTT0=
EXTT1=
EXTT2=
EXTT3=
EXTT4=
EXTT5=
EXTT6=
EXTT7=
EXTT8=
EXTT9=
EXTT10=
EXTT11=
EXTT12=
EXTT13=
EXTT14=
EXTT15=
EXTT16=
PLAYORDER=
